<mxfile host="app.diagrams.net" agent="Mozilla/5.0 (Windows NT 10.0; Win64; x64) AppleWebKit/537.36 (KHTML, like Gecko) Chrome/130.0.0.0 Safari/537.36" version="24.8.4">
  <diagram name="Page-1" id="7HFb4eJT5DeADiWzfKyt">
    <mxGraphModel dx="1194" dy="708" grid="1" gridSize="10" guides="1" tooltips="1" connect="1" arrows="1" fold="1" page="1" pageScale="1" pageWidth="826" pageHeight="1169" math="0" shadow="0">
      <root>
        <mxCell id="0" />
        <mxCell id="1" parent="0" />
        <mxCell id="k3Zgb3LlsUT-B3lbN6Yb-1" value="AutoSmartParts" style="swimlane;whiteSpace=wrap;html=1;" parent="1" vertex="1">
          <mxGeometry x="70" y="250" width="710" height="577.5" as="geometry" />
        </mxCell>
        <mxCell id="H6QfLu6qlSg-x463TTsG-5" value="" style="edgeStyle=orthogonalEdgeStyle;rounded=0;orthogonalLoop=1;jettySize=auto;html=1;" edge="1" parent="k3Zgb3LlsUT-B3lbN6Yb-1" source="k3Zgb3LlsUT-B3lbN6Yb-6" target="k3Zgb3LlsUT-B3lbN6Yb-14">
          <mxGeometry relative="1" as="geometry" />
        </mxCell>
        <mxCell id="k3Zgb3LlsUT-B3lbN6Yb-6" value="Front End" style="image;aspect=fixed;html=1;points=[];align=center;fontSize=12;image=img/lib/azure2/other/Container_App_Environments.svg;" parent="k3Zgb3LlsUT-B3lbN6Yb-1" vertex="1">
          <mxGeometry x="80" y="90" width="68" height="68" as="geometry" />
        </mxCell>
        <mxCell id="k3Zgb3LlsUT-B3lbN6Yb-9" value="" style="image;aspect=fixed;html=1;points=[];align=center;fontSize=12;image=img/lib/azure2/databases/SQL_Database.svg;" parent="k3Zgb3LlsUT-B3lbN6Yb-1" vertex="1">
          <mxGeometry x="580" y="303" width="48" height="64" as="geometry" />
        </mxCell>
        <mxCell id="k3Zgb3LlsUT-B3lbN6Yb-8" value="API" style="image;aspect=fixed;html=1;points=[];align=center;fontSize=12;image=img/lib/azure2/other/Container_App_Environments.svg;" parent="k3Zgb3LlsUT-B3lbN6Yb-1" vertex="1">
          <mxGeometry x="80" y="280" width="68" height="68" as="geometry" />
        </mxCell>
        <mxCell id="k3Zgb3LlsUT-B3lbN6Yb-11" style="edgeStyle=orthogonalEdgeStyle;rounded=0;orthogonalLoop=1;jettySize=auto;html=1;" parent="k3Zgb3LlsUT-B3lbN6Yb-1" source="k3Zgb3LlsUT-B3lbN6Yb-8" target="k3Zgb3LlsUT-B3lbN6Yb-6" edge="1">
          <mxGeometry relative="1" as="geometry" />
        </mxCell>
        <mxCell id="S5DLsuCRhaX4rhM3e5To-1" value="" style="verticalLabelPosition=bottom;html=1;verticalAlign=top;align=center;strokeColor=none;fillColor=#00BEF2;shape=mxgraph.azure.storage_queue;" parent="k3Zgb3LlsUT-B3lbN6Yb-1" vertex="1">
          <mxGeometry x="420" y="427.5" width="51" height="45" as="geometry" />
        </mxCell>
        <mxCell id="S5DLsuCRhaX4rhM3e5To-2" value="Add email details&amp;nbsp;" style="edgeStyle=orthogonalEdgeStyle;rounded=0;orthogonalLoop=1;jettySize=auto;html=1;entryX=0;entryY=0.5;entryDx=0;entryDy=0;entryPerimeter=0;exitX=0.412;exitY=1.007;exitDx=0;exitDy=0;exitPerimeter=0;" parent="k3Zgb3LlsUT-B3lbN6Yb-1" source="k3Zgb3LlsUT-B3lbN6Yb-8" target="S5DLsuCRhaX4rhM3e5To-1" edge="1">
          <mxGeometry relative="1" as="geometry">
            <Array as="points">
              <mxPoint x="108" y="448" />
              <mxPoint x="420" y="448" />
            </Array>
          </mxGeometry>
        </mxCell>
        <mxCell id="S5DLsuCRhaX4rhM3e5To-3" value="Create and send emails" style="image;aspect=fixed;html=1;points=[];align=center;fontSize=12;image=img/lib/azure2/compute/Function_Apps.svg;" parent="k3Zgb3LlsUT-B3lbN6Yb-1" vertex="1">
          <mxGeometry x="560" y="420" width="68" height="60" as="geometry" />
        </mxCell>
        <mxCell id="S5DLsuCRhaX4rhM3e5To-5" style="edgeStyle=orthogonalEdgeStyle;rounded=0;orthogonalLoop=1;jettySize=auto;html=1;entryX=1;entryY=0.5;entryDx=0;entryDy=0;entryPerimeter=0;" parent="k3Zgb3LlsUT-B3lbN6Yb-1" source="S5DLsuCRhaX4rhM3e5To-3" target="S5DLsuCRhaX4rhM3e5To-1" edge="1">
          <mxGeometry relative="1" as="geometry" />
        </mxCell>
        <mxCell id="H6QfLu6qlSg-x463TTsG-8" value="Upload daily parts" style="edgeStyle=orthogonalEdgeStyle;rounded=0;orthogonalLoop=1;jettySize=auto;html=1;entryX=0.813;entryY=0.016;entryDx=0;entryDy=0;entryPerimeter=0;" edge="1" parent="k3Zgb3LlsUT-B3lbN6Yb-1" source="k3Zgb3LlsUT-B3lbN6Yb-21" target="k3Zgb3LlsUT-B3lbN6Yb-9">
          <mxGeometry relative="1" as="geometry">
            <mxPoint x="600" y="310" as="targetPoint" />
          </mxGeometry>
        </mxCell>
        <mxCell id="k3Zgb3LlsUT-B3lbN6Yb-21" value="Check for files every x minutes" style="image;aspect=fixed;html=1;points=[];align=center;fontSize=12;image=img/lib/azure2/compute/Function_Apps.svg;" parent="k3Zgb3LlsUT-B3lbN6Yb-1" vertex="1">
          <mxGeometry x="447" y="82.5" width="68" height="60" as="geometry" />
        </mxCell>
        <mxCell id="k3Zgb3LlsUT-B3lbN6Yb-14" value="File Storage" style="verticalLabelPosition=bottom;html=1;verticalAlign=top;align=center;strokeColor=none;fillColor=#00BEF2;shape=mxgraph.azure.storage_blob;" parent="k3Zgb3LlsUT-B3lbN6Yb-1" vertex="1">
          <mxGeometry x="230" y="101.5" width="50" height="45" as="geometry" />
        </mxCell>
        <mxCell id="k3Zgb3LlsUT-B3lbN6Yb-22" style="edgeStyle=orthogonalEdgeStyle;rounded=0;orthogonalLoop=1;jettySize=auto;html=1;entryX=1;entryY=0.5;entryDx=0;entryDy=0;entryPerimeter=0;" parent="k3Zgb3LlsUT-B3lbN6Yb-1" source="k3Zgb3LlsUT-B3lbN6Yb-21" target="k3Zgb3LlsUT-B3lbN6Yb-14" edge="1">
          <mxGeometry relative="1" as="geometry" />
        </mxCell>
        <mxCell id="k3Zgb3LlsUT-B3lbN6Yb-5" value="View Site" style="shape=umlActor;verticalLabelPosition=bottom;verticalAlign=top;html=1;outlineConnect=0;" parent="1" vertex="1">
          <mxGeometry x="169" y="100" width="30" height="60" as="geometry" />
        </mxCell>
        <mxCell id="k3Zgb3LlsUT-B3lbN6Yb-7" style="edgeStyle=orthogonalEdgeStyle;rounded=0;orthogonalLoop=1;jettySize=auto;html=1;" parent="1" source="k3Zgb3LlsUT-B3lbN6Yb-6" target="k3Zgb3LlsUT-B3lbN6Yb-5" edge="1">
          <mxGeometry relative="1" as="geometry" />
        </mxCell>
        <mxCell id="k3Zgb3LlsUT-B3lbN6Yb-12" value="File Upload" style="shape=umlActor;verticalLabelPosition=bottom;verticalAlign=top;html=1;outlineConnect=0;" parent="1" vertex="1">
          <mxGeometry x="413" y="130" width="30" height="60" as="geometry" />
        </mxCell>
        <mxCell id="H6QfLu6qlSg-x463TTsG-6" value="Upload daily parts" style="edgeStyle=orthogonalEdgeStyle;rounded=0;orthogonalLoop=1;jettySize=auto;html=1;entryX=1.015;entryY=0.176;entryDx=0;entryDy=0;entryPerimeter=0;" edge="1" parent="1" source="k3Zgb3LlsUT-B3lbN6Yb-12" target="k3Zgb3LlsUT-B3lbN6Yb-6">
          <mxGeometry relative="1" as="geometry">
            <Array as="points">
              <mxPoint x="428" y="290" />
              <mxPoint x="316" y="290" />
              <mxPoint x="316" y="340" />
              <mxPoint x="219" y="340" />
            </Array>
          </mxGeometry>
        </mxCell>
      </root>
    </mxGraphModel>
  </diagram>
</mxfile>
